<svg width="472" height="120" viewBox="0 0 472 120" fill="none" xmlns="http://www.w3.org/2000/svg">
<g clip-path="url(#clip0_1_595)">
<path fill-rule="evenodd" clip-rule="evenodd" d="M51.1434 3.3155C103.422 8.86633 103.422 41.7676 100.394 58.4201C98.6787 68.2098 89.7973 117.057 30.5548 117.158C7.14039 117.158 3.60804 114.433 4.81913 109.185C5.40168 106.79 13.498 76.5401 19.3372 54.7237C22.6025 42.5236 25.162 32.9608 25.3068 32.3817C27.0693 25.3316 33.9476 26.3816 35.3618 26.5975C35.4862 26.6165 35.5684 26.629 35.601 26.629C35.8029 26.7299 35.9038 26.9318 35.9038 27.1336C35.3774 31.6454 28.9682 66.2996 25.693 84.0088C24.5724 90.0679 23.8186 94.1433 23.7929 94.3492C22.8846 100.304 23.7929 100.909 31.1604 100.909C67.594 100.909 80.8151 75.7791 84.4483 55.5942C90.6047 20.6745 56.4923 10.2793 8.75518 14.5181C8.70805 14.5181 8.62378 14.5208 8.50943 14.5246L8.50911 14.5246L8.50897 14.5246C7.64343 14.5529 5.05765 14.6373 3.80989 14.0135C1.99325 13.2061 0.47939 10.9857 0.0756932 9.77465C-0.0252311 9.37095 -0.0252311 8.86633 0.0756932 8.66448C0.176617 8.46263 0.277542 8.26079 0.47939 8.26079C15.9208 5.53583 37.3167 1.90256 51.1434 3.3155ZM217.971 94.7024C217.996 94.7276 218.022 94.7529 218.072 94.7529C218.375 94.9547 218.173 95.4593 217.87 95.7621C214.54 107.368 204.144 115.341 192.134 115.644C182.042 116.149 171.849 110.396 167.509 101.616C165.793 98.2852 164.784 94.7529 164.38 90.4131C162.866 91.1196 161.252 91.7251 159.637 92.2298C157.517 98.0834 153.884 103.432 148.939 107.167C138.241 115.039 123.809 117.461 110.89 110.295C95.0454 99.2945 96.9629 77.192 108.065 64.1728C119.166 51.1536 139.553 49.0342 149.746 55.3924C156.71 59.8331 160.343 67.6042 161.353 75.5773C162.866 74.568 164.178 73.256 165.692 71.4394C167.105 69.7237 169.931 65.5858 169.931 65.5858C171.647 63.0627 173.564 60.7414 175.886 58.7229C180.528 54.585 186.483 52.5665 192.538 52.5665C197.786 52.5665 203.034 54.0804 207.677 57.2091C209.191 58.1174 209.594 58.7229 209.09 59.5303C208.484 60.7414 207.677 61.8516 206.869 62.8608C205.255 64.8793 203.539 64.1728 202.429 63.6682C202.227 63.5673 202.025 63.4664 201.924 63.4664C196.777 61.6497 192.538 62.0534 188.198 64.6774C178.812 70.4301 177.299 81.5318 179.115 90.1104C180.932 98.7898 185.776 101.818 189.51 102.726C196.474 104.442 205.658 100.707 211.512 93.8445C213.329 91.7251 215.953 93.1381 217.87 94.6519C217.921 94.6519 217.946 94.6772 217.971 94.7024ZM119.772 95.6612C127.139 100.909 138.947 98.1843 144.7 89.7066C148.737 83.7521 152.37 73.8615 146.214 66.2922C139.149 57.6127 126.433 60.5395 119.166 68.6135C112.001 76.6874 111.9 90.0094 119.772 95.6612ZM311.023 55.2915C300.83 48.9332 280.443 51.0527 269.341 64.0719C262.479 72.0449 259.148 83.5503 261.268 93.7436C257.432 97.2759 252.891 99.6981 247.239 98.487C244.211 97.8815 240.78 94.4501 241.89 89.0002C242.092 87.9909 246.432 64.5765 250.57 41.8686C250.822 41.8686 251.099 41.8433 251.377 41.8181L251.377 41.8181C251.655 41.7929 251.932 41.7676 252.184 41.7676C261.974 41.1621 283.471 39.5473 286.398 37.9325C289.829 36.0149 289.627 32.9872 289.324 31.7761C289.224 31.4734 289.022 31.2715 288.719 31.2715C286.196 31.1706 273.479 30.666 263.892 30.3632C261.167 30.2623 257.13 30.2623 252.588 30.2623C254.607 19.1606 256.322 9.27003 257.13 3.82012C257.231 3.61827 257.029 3.3155 256.827 3.3155C256.221 3.21457 255.616 3.11365 254.909 3.11365C251.579 3.11365 247.946 4.93028 246.936 8.26078C246.936 8.26078 244.211 17.7477 240.78 30.2623C235.193 30.2623 229.975 30.3083 226.583 30.3381C224.95 30.3525 223.741 30.3632 223.118 30.3632C222.815 30.3632 222.614 30.565 222.513 30.8678C222.109 32.7854 221.1 39.5473 225.137 41.4649C227.66 42.6759 232.201 42.8778 237.348 42.6759C231.999 62.2552 226.348 84.0549 225.54 90.4131C224.632 97.4778 226.953 104.542 231.697 108.882C239.165 115.846 251.377 117.259 259.956 112.011C262.781 110.295 265.305 108.378 267.525 106.359C268.837 107.671 270.25 108.983 271.865 110.093C284.783 117.259 299.215 114.837 309.913 106.965C316.877 101.717 321.317 93.0371 322.327 84.5595C324.042 73.7606 320.611 61.4479 311.023 55.2915ZM305.775 89.7066C300.022 98.1843 288.214 100.909 280.847 95.6612C272.975 90.0094 273.076 76.6874 280.241 68.6135C287.508 60.5395 300.224 57.6127 307.289 66.2922C313.445 73.8615 309.812 83.7521 305.775 89.7066ZM386.313 26.629L385.707 27.5373C383.487 31.4734 382.982 36.3177 386.615 38.9417C389.845 41.0612 393.882 40.0519 396.405 38.1344C398.121 36.8223 399.231 34.7029 399.534 32.3817C399.837 29.9595 399.332 26.5281 396.607 24.8124C395.497 24.2068 394.286 23.904 393.075 23.904C391.157 23.904 389.139 24.5096 387.524 25.5188C387.12 25.8216 386.716 26.2253 386.313 26.629ZM459.281 106.965C466.346 101.717 470.685 93.0371 471.695 84.5595C473.108 73.7606 469.676 61.4479 460.189 55.2915C452.923 50.7499 440.408 50.548 429.811 55.5942C431.493 46.4511 434.554 25.6985 436.38 13.3148C437.074 8.6116 437.59 5.11556 437.784 3.92104V3.92086C437.784 3.71913 437.784 3.61824 437.683 3.51734C437.582 3.41642 437.481 3.3155 437.38 3.3155C436.775 3.21457 436.169 3.11365 435.564 3.11365C432.233 3.11365 428.6 4.93028 427.591 8.26078C427.591 8.26078 408.213 86.6789 407.507 90.4131C402.965 97.3769 397.515 100.102 391.662 98.2852C386.901 96.7974 387.111 93.0678 387.216 91.2153L387.221 91.1196C387.332 89.516 388.927 80.0657 390.496 70.7695C391.791 63.0985 393.068 55.5324 393.478 52.5665C393.579 52.1628 393.276 51.7591 392.873 51.6582C391.864 51.4564 390.753 51.3554 389.643 51.3554C386.111 51.3554 382.377 52.6674 380.156 58.1174C380.055 58.3192 373.697 80.6235 372.486 85.4678C372.436 85.7705 372.36 86.0733 372.284 86.376C372.209 86.6788 372.133 86.9816 372.082 87.2844C367.339 94.4501 360.072 100.606 349.576 98.3861C346.549 97.6796 343.218 95.4593 344.227 88.8992C344.53 87.1835 354.118 31.5743 356.944 13.8116C356.944 13.5088 356.843 13.4079 356.641 13.307C356.035 13.2061 355.329 13.1051 354.723 13.1051C351.393 13.1051 347.76 14.9218 346.75 18.2523C346.75 18.2523 331.41 74.568 328.079 90.4131C326.566 97.4778 327.575 104.24 333.832 109.791C339.585 114.938 350.686 116.552 359.971 112.717C365.32 110.497 369.761 106.763 372.89 103.634C376.927 111.708 386.615 116.956 395.497 114.837C402.36 113.222 407.608 108.277 411.039 104.038C412.351 105.955 413.966 107.772 415.682 109.084C423.554 115.442 434.857 116.552 444.95 113.525C450.097 112.415 455.042 110.093 459.281 106.965ZM429.609 69.8246C436.775 61.7506 449.592 58.7229 456.657 67.5033C462.813 75.0726 459.079 85.0641 455.042 90.9177C449.289 99.3954 436.169 102.524 428.802 97.2759C420.829 91.6242 422.444 77.8985 429.609 69.8246Z" fill="white"/>
</g>
<defs>
<clipPath id="clip0_1_595">
<rect width="472" height="120" fill="white"/>
</clipPath>
</defs>
</svg>
